<svg version="1.1" id="Layer_1" xmlns="http://www.w3.org/2000/svg" xmlns:xlink="http://www.w3.org/1999/xlink" x="0px" y="0px"
	 width="100%" viewBox="0 0 734 742" enable-background="new 0 0 734 742" xml:space="preserve">
<path fill="#FFFFFF" opacity="1.000000" stroke="none" 
	d="
M1.000000,290.000000 
	C1.000000,194.666672 1.023702,99.833305 0.904337,5.000121 
	C0.900027,1.575966 1.576509,0.904290 5.000041,0.905756 
	C247.000000,1.009349 489.000000,1.009349 730.999939,0.905756 
	C734.423523,0.904290 735.095642,1.576512 735.094177,5.000040 
	C734.990723,249.666672 734.990723,494.333344 735.094238,738.999939 
	C735.095642,742.423523 734.423523,743.095703 730.999939,743.094238 
	C489.000000,742.990662 247.000000,742.990662 5.000041,743.094238 
	C1.576510,743.095703 0.902660,742.423706 0.905177,738.999939 
	C1.015095,589.500000 1.000000,440.000000 1.000000,290.000000 
z"/>
<path fill="#0D0F0F" opacity="1.000000" stroke="none" 
	d="
M439.000000,118.994934 
	C527.663574,118.602211 615.827087,118.210594 703.990662,117.819321 
	C710.168274,117.791901 710.228577,117.805054 709.069885,123.631981 
	C694.925598,194.764099 680.769287,265.893829 666.601746,337.021332 
	C652.401123,408.315186 638.189148,479.606781 623.972961,550.897522 
	C616.002930,590.865540 607.946716,630.816772 600.148376,670.818298 
	C599.443359,674.435120 597.611084,674.336914 595.002258,674.360291 
	C532.674988,674.919495 470.347992,675.505493 408.021057,676.100464 
	C287.199921,677.253784 166.378815,678.415649 45.557682,679.572266 
	C44.228882,679.584961 42.899853,679.573914 41.134468,679.573914 
	C45.252380,664.805298 49.281036,650.257690 53.364853,635.725525 
	C101.216347,465.447449 149.090134,295.175598 196.839432,124.868866 
	C197.853241,121.252922 199.062027,119.982201 203.005951,119.971252 
	C281.504242,119.753471 360.002075,119.356682 439.000000,118.994934 
z"/>
<path fill="#0A252B" opacity="1.000000" stroke="none" 
	d="
M565.000000,121.012733 
	C597.997314,121.004036 630.495605,120.849968 662.991516,121.058937 
	C675.975220,121.142418 688.882996,119.444023 701.875366,119.954155 
	C705.397278,120.092438 707.186157,119.963753 706.185974,124.759758 
	C700.070251,154.085938 694.382141,183.501282 688.549622,212.886536 
	C681.364441,249.086502 674.187744,285.288147 666.988403,321.485291 
	C659.885010,357.199982 652.752014,392.908813 645.642700,428.622284 
	C639.083435,461.572418 632.554260,494.528564 625.982910,527.476257 
	C618.828430,563.347717 611.642517,599.212952 604.465820,635.079956 
	C602.322388,645.791931 599.950684,656.464783 598.125122,667.230408 
	C597.466492,671.114563 595.824890,672.067444 592.201599,672.038330 
	C533.074951,671.563843 473.954498,672.828430 414.835938,673.340576 
	C378.545197,673.654968 342.223175,672.826904 305.966614,674.223145 
	C277.322235,675.326233 248.700089,674.256592 220.083344,675.045532 
	C177.129303,676.229614 134.161011,675.490295 91.213989,676.269226 
	C77.427422,676.519348 63.616619,676.487793 49.832165,677.052002 
	C45.572968,677.226379 44.790817,676.002747 45.938576,671.983459 
	C53.407734,645.827576 60.666370,619.611572 68.030975,593.425720 
	C77.326904,560.372864 86.672508,527.333862 95.970078,494.281403 
	C104.638252,463.466492 113.267136,432.640533 121.921387,401.821686 
	C130.889938,369.883545 139.873383,337.949585 148.840652,306.011047 
	C156.462479,278.864532 164.063187,251.712051 171.686554,224.565948 
	C180.745514,192.307953 189.898117,160.075760 198.773880,127.767494 
	C199.758041,124.185112 201.057526,122.941513 204.765778,122.922150 
	C244.057755,122.717003 283.348328,122.202415 322.640350,122.055153 
	C368.136017,121.884644 413.644836,122.637901 459.125092,121.779015 
	C494.255646,121.115593 529.375793,121.280800 565.000000,121.012733 
z"/>
<path fill="#FEFEFE" opacity="1.000000" stroke="none" 
	d="
M386.983215,309.008057 
	C390.951202,317.098297 394.772095,324.845947 398.907196,333.230713 
	C404.977325,325.969086 410.973572,318.928162 416.827576,311.770905 
	C450.173340,271.001556 485.686554,232.118500 520.447144,192.580276 
	C521.933228,190.890015 523.351562,189.759674 525.872253,189.766678 
	C560.033447,189.861832 594.194885,189.833725 628.356323,189.848251 
	C628.812683,189.848450 629.268921,190.005692 629.822510,190.107559 
	C629.756531,192.075027 628.167480,192.950928 627.154175,194.117737 
	C565.771057,264.800995 504.378204,335.475830 442.881012,406.059753 
	C440.551056,408.733978 440.450897,410.585724 442.033875,413.621521 
	C474.515533,475.914948 506.885040,538.266846 539.274109,600.608521 
	C540.254211,602.494934 541.203857,604.397095 542.208496,606.372009 
	C540.935608,607.630432 539.544800,607.143860 538.339172,607.145203 
	C508.843689,607.178894 479.348175,607.161194 449.852722,607.191345 
	C447.470764,607.193787 445.554871,607.191833 444.229462,604.451782 
	C424.826385,564.339111 403.853912,524.978821 386.542572,483.864929 
	C385.136688,480.526001 383.795868,477.159698 382.160706,473.160095 
	C376.583618,480.350555 371.467010,487.171936 366.117584,493.805573 
	C342.787445,522.736450 317.615662,550.075562 293.149994,578.024719 
	C285.359314,586.924683 277.425079,595.699097 269.647522,604.610352 
	C268.119232,606.361450 266.592010,607.231995 264.161499,607.226379 
	C229.167023,607.145813 194.172318,607.171265 159.177658,607.165955 
	C158.569885,607.165833 157.962112,607.099304 156.468338,607.012024 
	C166.546188,595.449341 176.112747,584.467224 185.685806,573.490723 
	C236.160156,515.616455 286.611633,457.722046 337.182526,399.932159 
	C339.774475,396.970215 340.071564,394.955566 338.249084,391.352356 
	C305.189545,325.990692 272.314545,260.535645 239.410568,195.095322 
	C238.613235,193.509552 237.934311,191.864227 237.010254,189.828339 
	C254.958374,189.828339 272.426880,189.828339 289.895386,189.828339 
	C300.727051,189.828339 311.560913,189.948257 322.389008,189.751694 
	C325.442444,189.696259 327.029358,190.566650 328.471039,193.367477 
	C348.185944,231.669006 368.619019,269.605286 386.983215,309.008057 
z"/>
<path fill="#0E1010" opacity="1.000000" stroke="none" 
	d="
M425.180420,252.425186 
	C405.930939,254.945602 389.179413,250.723373 375.455292,236.948578 
	C359.148254,220.581345 356.413330,193.717621 368.547974,173.971207 
	C386.943298,144.036926 430.410400,140.320587 454.398651,164.892075 
	C480.197296,191.317917 470.455536,236.021851 436.052124,249.181259 
	C432.623383,250.492767 429.174011,251.565262 425.180420,252.425186 
z"/>
<path fill="#FEFEFE" opacity="1.000000" stroke="none" 
	d="
M377.666260,235.323776 
	C362.380188,218.210312 359.258484,196.802826 369.127869,178.254684 
	C378.759521,160.153336 400.079620,148.880157 419.966095,151.373596 
	C443.201630,154.286926 460.231323,168.965057 465.242981,190.398346 
	C471.651642,217.805908 452.108673,245.843430 423.781830,250.017731 
	C406.123352,252.619904 390.873444,247.802231 377.666260,235.323776 
z"/>
</svg>