<svg  viewBox="0 0 1871 564" fill="none" xmlns="http://www.w3.org/2000/svg">
<path d="M928 188H1871L1808 491H865L928 188Z" fill="#F0CC00"/>
<g clip-path="url(#clip0_123_428)">
<path d="M255.273 197.387C250.852 192.254 245.352 188.185 238.796 185.188C232.232 182.191 224.597 180.692 215.898 180.692C207.049 180.692 198.777 182.266 191.074 185.405C183.372 188.545 176.381 193.004 170.102 198.781C163.823 204.558 158.406 211.482 153.835 219.537C149.264 227.6 145.63 236.547 142.926 246.393H268.116C268.258 245.681 268.363 244.362 268.438 242.437C268.505 240.511 268.543 238.622 268.543 236.764C268.543 229.203 267.434 222.032 265.223 215.251C263.013 208.485 259.694 202.528 255.273 197.387Z" fill="#FFFFFF"/>
<path d="M492.301 198.571C487.303 193.079 481.241 188.83 474.108 185.84C466.975 182.843 458.913 181.344 449.929 181.344C438.083 181.344 427.098 183.989 416.975 189.264C406.845 194.547 398.071 201.891 390.653 211.31C383.235 220.729 377.383 231.961 373.105 245.014C368.827 258.067 366.684 272.372 366.684 287.921C366.684 297.624 368.077 306.541 370.857 314.671C373.637 322.802 377.526 329.763 382.516 335.54C387.506 341.317 393.5 345.813 400.491 349.021C407.482 352.228 415.26 353.839 423.816 353.839C435.797 353.839 446.887 351.021 457.092 345.386C467.29 339.751 476.169 332.048 483.736 322.277C491.297 312.506 497.216 301.019 501.494 287.823C505.773 274.628 507.916 260.398 507.916 245.127C507.916 235.28 506.56 226.438 503.847 218.593C501.142 210.733 497.291 204.064 492.301 198.571Z" fill="#FFFFFF"/>
<path d="M639.924 92.2794L659.211 0H92.881L0 443.638H473.509L447.426 562.623H901.004L1001.06 92.2719H639.924V92.2794ZM306.846 249.503C306.704 252.575 306.486 255.715 306.202 258.922C305.917 262.129 305.632 265.276 305.347 268.341C305.063 271.405 304.703 274.013 304.276 276.149H138.003C137.86 278.149 137.748 280.075 137.681 281.926C137.606 283.784 137.576 285.71 137.576 287.703C137.576 299.543 139.284 309.636 142.708 317.983C146.132 326.331 150.591 333.142 156.083 338.425C161.575 343.708 167.749 347.522 174.598 349.875C181.446 352.228 188.362 353.412 195.353 353.412C210.616 353.412 222.881 350.774 232.158 345.491C241.426 340.216 248.492 333.082 253.34 324.09H292.505C290.077 332.94 286.083 341.213 280.524 348.916C274.957 356.619 267.936 363.288 259.446 368.923C250.957 374.557 241.111 378.979 229.917 382.193C218.715 385.4 206.412 387.004 193 387.004C180.157 387.004 168.034 384.898 156.622 380.687C145.203 376.483 135.253 370.271 126.771 362.066C118.282 353.861 111.576 343.768 106.653 331.786C101.73 319.797 99.2724 306.032 99.2724 290.476C99.2724 269.217 102.232 249.855 108.151 232.373C114.071 214.899 122.313 199.92 132.87 187.429C143.428 174.945 156.09 165.279 170.859 158.43C185.627 151.581 201.782 148.157 219.33 148.157C231.168 148.157 242.408 150.225 253.033 154.368C263.657 158.505 272.971 164.529 280.958 172.45C288.946 180.37 295.292 190.104 300.005 201.658C304.711 213.213 307.071 226.483 307.071 241.462C307.063 243.763 306.988 246.438 306.846 249.503ZM481.601 382.935L488.232 351.478H484.808C476.386 362.463 465.829 371.133 453.136 377.48C440.435 383.827 426.739 387.004 412.053 387.004C400.499 387.004 389.657 384.823 379.526 380.477C369.396 376.131 360.517 369.882 352.882 361.752C345.247 353.621 339.222 343.775 334.802 332.221C330.381 320.659 328.171 307.748 328.171 293.481C328.171 279.641 329.557 266.407 332.344 253.781C335.124 241.155 339.088 229.458 344.22 218.683C349.353 207.908 355.527 198.174 362.735 189.474C369.936 180.775 377.93 173.356 386.704 167.219C395.478 161.09 404.964 156.377 415.162 153.095C425.36 149.813 436.03 148.171 447.156 148.171C455.429 148.171 463.311 149.318 470.804 151.596C478.297 153.881 485.07 157.051 491.132 161.12C497.194 165.189 502.401 170.112 506.754 175.889C511.108 181.666 514.277 187.983 516.278 194.832H519.702L548.16 60.6503H585.609L517.132 382.95H481.601V382.935ZM852.406 501.988H769.505L715.294 383.01H708.521L608.192 501.988H525.786L682.124 316.755L609.698 152.907H694.195L742.374 265.711H746.854L837.959 152.907H921.489L772.24 324.967L852.406 501.988Z" fill="#FFFFFF"/>
<path d="M1050.36 150.673C1046.27 150.673 1042.42 149.908 1038.84 148.377C1035.26 146.846 1032.11 144.723 1029.4 142.007C1026.68 139.29 1024.56 136.139 1023.03 132.56C1021.5 128.981 1020.73 125.139 1020.73 121.043C1020.73 116.946 1021.5 113.104 1023.03 109.525C1024.56 105.946 1026.68 102.795 1029.4 100.079C1032.11 97.3624 1035.27 95.239 1038.84 93.7083C1042.42 92.1777 1046.27 91.4124 1050.36 91.4124C1054.46 91.4124 1058.3 92.1777 1061.89 93.7083C1065.47 95.239 1068.62 97.3624 1071.33 100.079C1074.05 102.795 1076.17 105.946 1077.7 109.525C1079.23 113.104 1080 116.946 1080 121.043C1080 125.139 1079.23 128.981 1077.7 132.56C1076.17 136.139 1074.05 139.29 1071.33 142.007C1068.62 144.723 1065.47 146.846 1061.89 148.377C1058.3 149.908 1054.47 150.673 1050.36 150.673ZM1050.36 145.15C1054.8 145.15 1058.85 144.062 1062.49 141.894C1066.13 139.718 1069.05 136.814 1071.22 133.168C1073.4 129.529 1074.48 125.484 1074.48 121.035C1074.48 116.586 1073.39 112.549 1071.22 108.902C1069.05 105.263 1066.14 102.352 1062.49 100.176C1058.85 98.0002 1054.8 96.9197 1050.36 96.9197C1045.92 96.9197 1041.88 98.0077 1038.23 100.176C1034.58 102.352 1031.68 105.256 1029.5 108.902C1027.33 112.541 1026.25 116.586 1026.25 121.035C1026.25 125.484 1027.33 129.521 1029.5 133.168C1031.68 136.814 1034.58 139.718 1038.23 141.894C1041.87 144.07 1045.91 145.15 1050.36 145.15ZM1040.32 134.368V107.027H1053.44C1054.82 107.027 1056.16 107.357 1057.45 108.009C1058.75 108.662 1059.82 109.63 1060.68 110.898C1061.53 112.174 1061.96 113.734 1061.96 115.588C1061.96 117.441 1061.52 119.039 1060.64 120.382C1059.76 121.725 1058.65 122.761 1057.31 123.474C1055.97 124.194 1054.58 124.547 1053.14 124.547H1042.99V120.802H1051.88C1053.14 120.802 1054.26 120.352 1055.27 119.452C1056.27 118.552 1056.77 117.261 1056.77 115.58C1056.77 113.9 1056.27 112.616 1055.27 111.874C1054.27 111.131 1053.18 110.763 1051.99 110.763H1045.1V134.361H1040.32V134.368ZM1056.25 121.658L1063.07 134.368H1057.74L1051.1 121.658H1056.25Z" fill="#FFFFFF"/>
</g>
<path d="M1142.1 319.054L1167.87 267.107H1200.71L1159.91 338.956L1201.71 412H1169.07L1142.49 359.257L1116.02 412H1082.99L1124.78 338.956L1084.08 267.107H1116.72L1142.1 319.054ZM1241.94 358.195V412H1215.04V269.336H1270.88C1278.22 269.336 1284.6 270.559 1290.04 273.005C1295.47 275.315 1299.96 278.44 1303.49 282.38C1307.16 286.184 1309.88 290.6 1311.64 295.627C1313.54 300.518 1314.5 305.546 1314.5 310.709V315.6C1314.5 320.899 1313.54 326.13 1311.64 331.293C1309.88 336.32 1307.16 340.872 1303.49 344.948C1299.96 348.888 1295.47 352.081 1290.04 354.527C1284.6 356.973 1278.22 358.195 1270.88 358.195H1241.94ZM1241.94 332.516H1268.23C1274.21 332.516 1278.9 330.885 1282.29 327.625C1285.83 324.364 1287.59 320.152 1287.59 314.989V312.543C1287.59 307.38 1285.83 303.168 1282.29 299.907C1278.9 296.646 1274.21 295.016 1268.23 295.016H1241.94V332.516ZM1337.79 269.336H1427.87V295.016H1364.69V327.625H1425.43V353.304H1364.69V386.321H1430.32V412H1337.79V269.336ZM1552.46 412H1525.56V369.201C1525.56 365.94 1524.68 363.291 1522.91 361.252C1521.28 359.214 1518.49 358.195 1514.55 358.195H1483.57V412H1456.67V269.336H1511.29C1518.63 269.336 1525.08 270.355 1530.65 272.393C1536.22 274.431 1540.84 277.285 1544.51 280.953C1548.32 284.486 1551.17 288.63 1553.07 293.385C1555.11 298.141 1556.13 303.236 1556.13 308.671V313.562C1556.13 319.404 1554.57 324.907 1551.44 330.07C1548.32 335.097 1543.49 338.97 1536.97 341.687V345.356C1541.73 345.899 1545.46 347.733 1548.18 350.858C1551.03 353.983 1552.46 357.924 1552.46 362.679V412ZM1483.57 332.516H1509.25C1515.78 332.516 1520.73 331.021 1524.13 328.032C1527.53 324.907 1529.23 320.559 1529.23 314.989V312.543C1529.23 307.788 1527.53 303.711 1524.13 300.315C1520.73 296.782 1515.78 295.016 1509.25 295.016H1483.57V332.516ZM1571.48 269.336H1674.19V295.016H1636.29V412H1609.38V295.016H1571.48V269.336Z" fill="#00262B"/>
<defs>
<clipPath id="clip0_123_428">
<rect width="1080" height="563.25" fill="#FFFFFF"/>
</clipPath>
</defs>
</svg>
